<?xml version="1.0" ?><!DOCTYPE svg  PUBLIC '-//W3C//DTD SVG 1.1//EN'  'http://www.w3.org/Graphics/SVG/1.1/DTD/svg11.dtd'><svg enable-background="new 0 0 128 128" id="Слой_1" version="1.1" viewBox="0 0 128 128" xml:space="preserve" xmlns="http://www.w3.org/2000/svg" xmlns:xlink="http://www.w3.org/1999/xlink"><g><g><g><g opacity="0.5"><g><path d="M97.6,47.1l-0.1-0.3c-1-2.9-3.2-5.5-0.2-6.6c2.8-1,5.8,0.4,7,3l0.5,1.2c0,0,0,0,0,0       c0.9,2-0.4,4.4-2.5,4.8l-1.5,0.3C99,49.9,98.1,48.8,97.6,47.1z" fill="#F0D6BF"/></g></g><g><g><path d="M125.7,111.1c-1.1-1.6-1.7-3.5-1.6-5.4l0.2-9.9c0.1-8.2-0.3-16.5-1.4-24.6l-0.9-6.8       c-0.3-2.6-1.7-4.9-3.8-6.3l-10.2-7.2l-0.3,0.9c-0.8-2.5-1.8-4.9-2.8-7.4l-1.6-3.8c-1-1.9-4.3-0.8-4.3-0.8       c-3.5,0.7-5.8,5.9-4.5,9.5l2.3,6.5l3.5,11.7c0.6,2.1-1.3,4.7-2.2,6.7c-0.6,1.4-1.3,3.5-1.3,3.5l-8.4,0.5       c-1.3,6.9,5.6,20.6,6.5,22.9c0.5,1.2,1.2,2.3,2.1,3.2c1.2,1.2,2.1,2.7,2.4,4.3l0.5,2.4c0.5,2.2,1.2,4.4,2.2,6.5l0.9,1.8H126       v-7.8L125.7,111.1z" fill="#F0D6BF"/></g></g><g><g><g><path d="M115.3,72.3c-1.6,0.3-3.3-0.4-4.1-1.9l-1.8-3.3c-0.8-1.1-1.3-2.3-1.6-3.6c-1.3-6.4-2.7-12.3-5.3-18.2        l-2.2-4.6c-0.6-1.1-1.3-0.8-2.6-0.6c0.1,0,0.1,0,0.2-0.1c0,0,3.2-1,4.3,0.8l1.6,3.8c2.6,5.9,4.6,12.1,5.9,18.4        c0.3,1.3,0.8,2.6,1.6,3.7L115.3,72.3L115.3,72.3z" fill="#FFFFFF"/></g></g></g><g><g><g><path d="M125.7,111.1c-1.1-1.6-1.7-3.5-1.6-5.4l0.2-9.9c0.1-8.2-0.3-16.5-1.4-24.6l-0.9-6.8        c-0.3-2.6-1.7-4.9-3.8-6.3l-10.2-7.2l0.6,3.8l6.8,3.9c2.1,1.5,3.5,3.8,3.8,6.3l0.9,6.8c1.1,8.2-0.2,16.8-0.4,25l-0.2,9.9        c0,1.9,0.5,3.8,1.6,5.4l4.8,7v-7.5L125.7,111.1z" fill="#FFFFFF"/></g></g></g><g opacity="0.2"><path d="M118.9,58.8c-0.3-0.2-0.6-0.5-0.9-0.7l-10.2-7.2l-0.3,0.9c-0.8-2.5-1.8-4.9-2.8-7.4l-1.6-3.8      c-1-1.9-4.3-0.8-4.3-0.8c-3.5,0.7-5.8,5.9-4.5,9.5l2.3,6.5l3.5,11.7c0.6,2.1-1.3,4.7-2.2,6.7c-0.6,1.4-1.3,3.5-1.3,3.5l-8.4,0.5      c-0.3,1.5-0.2,3.4,0.2,5.4c0.5,0,1,0,1.5,0C104.6,83.6,116.8,72.8,118.9,58.8z" fill="#62345B"/></g></g><g><g opacity="0.7"><g><path d="M97.6,47.1l-0.1-0.3c-1-2.9-3.2-5.5-0.2-6.6c2.8-1,4.7-2.2,5.9,0.5l1.6,3.8c0,0,0,0,0,0       c0.9,2-0.4,4.4-2.5,4.8l-1.5,0.3C99,49.9,98.1,48.8,97.6,47.1z" fill="#FFFFFF"/></g></g><g><g><path d="M103.3,116.9c-0.9-1.9-1.6-4-2.1-6.1l-0.4-2.1c-0.4-2.1-1.4-3.9-2.9-5.4c-0.8-0.8-1.3-1.7-1.7-2.7       c-0.2-0.4-0.5-1.1-0.9-2c-1.9-4-6.4-13.5-5.5-20.2c0.1-0.8-0.5-1.6-1.3-1.7c-0.8-0.1-1.6,0.5-1.7,1.3c-1,7.6,3.6,17.2,5.8,21.9       c0.4,0.8,0.7,1.4,0.8,1.8c0.5,1.4,1.3,2.6,2.4,3.7c1.1,1.1,1.8,2.4,2.1,3.9l0.4,2.1c0.5,2.4,1.3,4.6,2.3,6.8l0.5,1.1h3.3       L103.3,116.9z" fill="#62355C"/></g><g><path d="M125.6,105.7l0.2-9.9c0.2-8.3-0.3-16.6-1.4-24.8l-0.9-6.8c-0.4-3-2-5.6-4.5-7.4l-10.2-7.2       c-0.7-0.5-1.6-0.3-2.1,0.4c-0.5,0.7-0.3,1.6,0.4,2.1l10.2,7.2c1.8,1.2,2.9,3.2,3.2,5.3l0.9,6.8c1.1,8.1,1.5,16.3,1.4,24.4       l-0.2,9.9c0,2.3,0.6,4.4,1.9,6.3l1.5,2.2v-5.8C125.7,107.6,125.5,106.7,125.6,105.7z" fill="#62355C"/></g></g><g><g><path d="M97.7,97.9c0,0-0.1,0-0.1,0c-0.8-0.1-1.4-0.8-1.4-1.6l0.3-2.9c-2.7-9.9-1.5-16.2,0.1-19.8       c0.2-0.5,0.5-1,0.8-1.6c0.7-1.4,1.6-3.1,1.3-4.1l-3.5-11.7l-2.3-6.5c-0.8-2.3-0.5-5.2,0.9-7.7c1.1-2,2.8-3.4,4.7-3.8       c1.7-0.5,4.7-0.7,5.9,1.6c0,0,0,0.1,0.1,0.1l1.6,3.8c2.6,6,4.6,12.4,6,18.8c0.2,1.1,0.7,2.1,1.3,3l4.1,5.5       c0.5,0.7,0.3,1.6-0.3,2.1c-0.7,0.5-1.6,0.3-2.1-0.3l-4.1-5.5c-0.9-1.2-1.5-2.7-1.9-4.2c-1.3-6.2-3.2-12.4-5.8-18.2l-1.6-3.7       c-0.3-0.4-1.6-0.3-2.5-0.1c0,0-0.1,0-0.1,0c-1,0.2-2,1.1-2.7,2.3c-0.9,1.7-1.2,3.7-0.7,5.2l2.3,6.5l3.5,11.7       c0.7,2.2-0.6,4.5-1.5,6.4c-0.3,0.5-0.5,1-0.7,1.4c-1.1,2.6-2.6,8.3,0.1,18c0.1,0.2,0.1,0.4,0,0.6l-0.3,3.1       C99.1,97.3,98.4,97.9,97.7,97.9z" fill="#62355C"/></g></g><g><g><path d="M103.3,50.6c-0.7,0-1.3-0.5-1.5-1.2c-0.2-0.8,0.4-1.6,1.2-1.8c0.4-0.1,0.6-0.4,0.7-0.5       c0.1-0.2,0.2-0.5,0-0.9c-0.3-0.8,0-1.6,0.8-2c0.8-0.3,1.6,0,2,0.8c0.5,1.1,0.4,2.4-0.2,3.5c-0.6,1.1-1.6,1.8-2.8,2.1       C103.5,50.5,103.4,50.6,103.3,50.6z" fill="#62355C"/></g></g></g></g><g><g><g opacity="0.5"><g><path d="M30.4,47.1l0.1-0.3c1-2.9,3.2-5.5,0.2-6.6c-2.8-1-5.8,0.4-7,3l-0.5,1.2c0,0,0,0,0,0       c-0.9,2,0.4,4.4,2.5,4.8l1.5,0.3C29,49.9,29.9,48.8,30.4,47.1z" fill="#F0D6BF"/></g></g><g><g><path d="M39.7,78.2l-8.4-0.5c0,0-0.6-2.1-1.3-3.5c-0.9-2-2.8-4.6-2.2-6.7l3.5-11.7l2.3-6.5       c1.3-3.6-1-8.7-4.5-9.5c0,0-3.2-1-4.3,0.8l-1.6,3.8c-1.1,2.4-2,4.9-2.8,7.4l-0.3-0.9L9.9,58.1c-2.1,1.5-3.5,3.8-3.8,6.3       l-0.9,6.8c-1.1,8.2-1.6,16.4-1.4,24.6l0.2,9.9c0,1.9-0.5,3.8-1.6,5.4L2,111.6v7.8h23.2l0.9-1.8c1-2.1,1.7-4.2,2.2-6.5l0.5-2.4       c0.3-1.7,1.2-3.1,2.4-4.3c0.9-0.9,1.6-2,2.1-3.2C34.1,98.8,41,85.2,39.7,78.2z" fill="#F0D6BF"/></g></g><g><g><g><path d="M12.7,72.3c1.6,0.3,3.3-0.4,4.1-1.9l1.8-3.3c0.8-1.1,1.3-2.3,1.6-3.6c1.3-6.4,2.7-12.3,5.3-18.2        l2.2-4.6c0.6-1.1,1.3-0.8,2.6-0.6c-0.1,0-0.1,0-0.2-0.1c0,0-3.2-1-4.3,0.8l-1.6,3.8c-2.6,5.9-4.6,12.1-5.9,18.4        c-0.3,1.3-0.8,2.6-1.6,3.7L12.7,72.3L12.7,72.3z" fill="#FFFFFF"/></g></g></g><g><g><g><path d="M9.9,58.1c-2.1,1.5-3.5,3.8-3.8,6.3l-0.9,6.8c-1.1,8.2-1.6,16.4-1.4,24.6l0.2,9.9        c0,1.9-0.5,3.8-1.6,5.4L2,111.6v7.5l4.8-7c1.1-1.6,1.7-3.5,1.6-5.4l-0.2-9.9c-0.1-8.2-1.5-16.8-0.4-25L8.8,65        c0.3-2.6,1.7-4.9,3.8-6.3l6.8-3.9l0.6-3.8L9.9,58.1z" fill="#FFFFFF"/></g></g></g><g opacity="0.2"><path d="M31.3,77.8c0,0-0.6-2.1-1.3-3.5c-0.9-2-2.8-4.6-2.2-6.7l3.5-11.7l2.3-6.5c1.3-3.6-1-8.7-4.5-9.5      c0,0-3.2-1-4.3,0.8l-1.6,3.8c-1.1,2.4-2,4.9-2.8,7.4l-0.3-0.9L9.9,58.1c-0.8,0.6-1.6,1.3-2.1,2.1c2.7,13.4,14.6,23.4,28.7,23.4      c1,0,2.1-0.1,3.1-0.2c0.3-1.9,0.4-3.7,0.2-5.2L31.3,77.8z" fill="#62345B"/></g></g><g><g opacity="0.7"><g><path d="M30.4,47.1l0.1-0.3c1-2.9,3.2-5.5,0.2-6.6c-2.8-1-4.7-2.2-5.9,0.5l-1.6,3.8c0,0,0,0,0,0       c-0.9,2,0.4,4.4,2.5,4.8l1.5,0.3C29,49.9,29.9,48.8,30.4,47.1z" fill="#FFFFFF"/></g></g><g><g><path d="M21.3,50.1c-0.5-0.7-1.4-0.8-2.1-0.4L9.1,56.9c-2.4,1.7-4.1,4.4-4.5,7.4L3.7,71       c-1.1,8.2-1.6,16.6-1.4,24.8l0.2,9.9c0,0.9-0.1,1.8-0.4,2.7v5.8l1.5-2.2c1.3-1.9,1.9-4,1.9-6.3l-0.2-9.9       c-0.1-8.1,0.3-16.3,1.4-24.4l0.9-6.8c0.3-2.1,1.5-4.1,3.2-5.3L21,52.2C21.7,51.7,21.8,50.7,21.3,50.1z" fill="#62355C"/></g><g><path d="M27.4,118.2c1-2.2,1.8-4.5,2.3-6.8l0.4-2.1c0.3-1.5,1-2.9,2.1-3.9c1-1.1,1.9-2.3,2.4-3.7       c0.1-0.3,0.4-1,0.8-1.8c2.2-4.6,6.7-14.3,5.8-21.9c-0.1-0.8-0.9-1.4-1.7-1.3c-0.8,0.1-1.4,0.9-1.3,1.7       c0.9,6.7-3.6,16.2-5.5,20.2c-0.4,0.9-0.7,1.5-0.9,2c-0.4,1-1,1.9-1.7,2.7c-1.5,1.5-2.5,3.4-2.9,5.4l-0.4,2.1       c-0.4,2.1-1.1,4.2-2.1,6.1l-1.2,2.4h3.3L27.4,118.2z" fill="#62355C"/></g></g><g><g><path d="M30.3,97.9c-0.8,0-1.4-0.6-1.5-1.4l-0.3-3.1c0-0.2,0-0.4,0-0.5c2.7-9.7,1.2-15.4,0.1-18       c-0.2-0.4-0.4-0.9-0.7-1.4c-1-1.9-2.2-4.2-1.5-6.4l3.5-11.7l2.3-6.6c0.5-1.5,0.3-3.5-0.7-5.2c-0.7-1.3-1.7-2.1-2.7-2.3       c-0.1,0-0.1,0-0.1,0c-0.8-0.2-2.2-0.3-2.5,0.1L24.7,45c-2.6,5.9-4.5,12-5.8,18.2c-0.3,1.5-0.9,2.9-1.9,4.2L13,73       c-0.5,0.7-1.4,0.8-2.1,0.3c-0.7-0.5-0.8-1.4-0.3-2.1l4.1-5.5c0.7-0.9,1.1-1.9,1.3-3c1.3-6.5,3.3-12.8,6-18.8l1.6-3.8       c0,0,0-0.1,0.1-0.1c1.2-2.3,4.3-2.1,5.9-1.6c1.9,0.4,3.5,1.7,4.7,3.8c1.4,2.4,1.7,5.4,0.9,7.7l-2.3,6.5l-3.4,11.6       c-0.3,1,0.6,2.8,1.3,4.1c0.3,0.5,0.6,1.1,0.8,1.6c1.6,3.6,2.9,9.9,0.1,19.8l0.3,2.9c0.1,0.8-0.5,1.6-1.4,1.6       C30.4,97.9,30.4,97.9,30.3,97.9z" fill="#62355C"/></g></g><g><g><path d="M24.7,50.6c-0.1,0-0.2,0-0.3,0c-1.2-0.2-2.2-1-2.8-2.1S21,46.1,21.4,45c0.3-0.8,1.2-1.1,2-0.8       c0.8,0.3,1.1,1.2,0.8,2c-0.2,0.4,0,0.7,0,0.9c0.1,0.2,0.3,0.5,0.7,0.5c0.8,0.2,1.3,1,1.2,1.8C26,50.1,25.4,50.6,24.7,50.6z" fill="#62355C"/></g></g></g></g><g><g><g><g><g><path d="M91.5,31.1c0,0-54.3,0-55,0c-12.9,0-23.3,10.4-23.3,23.3c0,12.9,10.4,23.3,23.3,23.3        c8.4,0,15.7-4.4,19.8-11h15.5c4.1,6.6,11.4,11,19.8,11c12.9,0,23.3-10.4,23.3-23.3C114.8,41.5,104.4,31.1,91.5,31.1z" fill="#EAE6EC"/></g></g><g><g><g><path d="M16.6,56.9C16.6,44,27,33.6,39.9,33.6c0.7,0,55,0,55,0c4.5,0,8.7,1.3,12.2,3.5c-4.1-3.7-9.6-6-15.6-6         c0,0-54.3,0-55,0c-12.9,0-23.3,10.4-23.3,23.3c0,8.4,4.4,15.7,11.1,19.8C19.5,69.9,16.6,63.8,16.6,56.9z" fill="#FFFFFF"/></g></g><g opacity="0.1"><g><path d="M52.9,64.1c-4.1,6.6-11.4,11-19.8,11c-4.5,0-8.7-1.3-12.2-3.5c4.1,3.7,9.6,6,15.6,6         c8.4,0,15.7-4.4,19.8-11h15.6c-0.7-0.8-1.3-1.7-1.8-2.5H52.9z" fill="#0C0F13"/></g></g></g><g><g><circle cx="91.5" cy="45.9" fill="#FFFFFF" r="2.5"/></g></g><g><g><circle cx="91.5" cy="62.8" fill="#FFFFFF" r="2.5"/></g></g><g><g><circle cx="100" cy="54.4" fill="#FFFFFF" r="2.5"/></g></g><g><g><circle cx="83.1" cy="54.4" fill="#FFFFFF" r="2.5"/></g></g><g><g><circle cx="36.5" cy="54.4" fill="#ADA2B5" r="14.8"/></g></g></g><g><g><g><path d="M91.5,79.1c-8.3,0-16-4.1-20.6-11H57.1c-4.6,6.9-12.3,11-20.6,11c-13.7,0-24.8-11.1-24.8-24.8        s11.1-24.8,24.8-24.8h55c13.7,0,24.8,11.1,24.8,24.8S105.2,79.1,91.5,79.1z M56.3,65.1h15.5c0.5,0,1,0.3,1.3,0.7        c4,6.5,10.9,10.3,18.5,10.3c12,0,21.8-9.8,21.8-21.8s-9.8-21.8-21.8-21.8h-55c-12,0-21.8,9.8-21.8,21.8s9.8,21.8,21.8,21.8        c7.6,0,14.5-3.9,18.5-10.3C55.3,65.4,55.7,65.1,56.3,65.1z" fill="#62355C"/></g></g><g><g><path d="M74.6,41H53.4c-0.8,0-1.5-0.7-1.5-1.5s0.7-1.5,1.5-1.5h21.2c0.8,0,1.5,0.7,1.5,1.5S75.4,41,74.6,41z" fill="#62355C"/></g></g><g><g><path d="M64.6,22.6h-1.2c-0.8,0-1.5-0.7-1.5-1.5s0.7-1.5,1.5-1.5h1.2c0.8,0,1.5,0.7,1.5,1.5        S65.4,22.6,64.6,22.6z" fill="#46B8C4"/></g></g><g><g><path d="M69.6,10.6H58.4c-0.8,0-1.5-0.7-1.5-1.5s0.7-1.5,1.5-1.5h11.2c0.8,0,1.5,0.7,1.5,1.5        S70.4,10.6,69.6,10.6z" fill="#46B8C4"/></g></g><g><g><path d="M67.1,16.6h-6.2c-0.8,0-1.5-0.7-1.5-1.5s0.7-1.5,1.5-1.5h6.2c0.8,0,1.5,0.7,1.5,1.5        S67.9,16.6,67.1,16.6z" fill="#46B8C4"/></g></g><g><g><path d="M36.5,62.2c-0.8,0-1.5-0.7-1.5-1.5V48c0-0.8,0.7-1.5,1.5-1.5S38,47.2,38,48v12.7        C38,61.5,37.3,62.2,36.5,62.2z" fill="#62355C"/></g></g><g><g><path d="M65.7,62.2c-0.3,0-0.5-0.1-0.7-0.2c-0.7-0.4-1-1.3-0.5-2l3-5.1c0.4-0.7,1.3-1,2-0.5        c0.7,0.4,1,1.3,0.5,2l-3,5.1C66.7,61.9,66.2,62.2,65.7,62.2z" fill="#62355C"/></g></g><g><g><path d="M60.6,62.2c-0.3,0-0.5-0.1-0.7-0.2c-0.7-0.4-1-1.3-0.5-2l3-5.1c0.4-0.7,1.3-1,2-0.5        c0.7,0.4,1,1.3,0.5,2l-3,5.1C61.6,61.9,61.1,62.2,60.6,62.2z" fill="#62355C"/></g></g><g><g><path d="M42.8,55.9H30.1c-0.8,0-1.5-0.7-1.5-1.5s0.7-1.5,1.5-1.5h12.7c0.8,0,1.5,0.7,1.5,1.5        S43.7,55.9,42.8,55.9z" fill="#62355C"/></g></g><g><g><path d="M91.5,49.9c-2.2,0-4-1.8-4-4c0-2.2,1.8-4,4-4c2.2,0,4,1.8,4,4C95.6,48.1,93.8,49.9,91.5,49.9z         M91.5,44.8c-0.6,0-1,0.5-1,1c0,0.6,0.5,1,1,1c0.6,0,1-0.5,1-1C92.6,45.3,92.1,44.8,91.5,44.8z" fill="#62355C"/></g></g><g><g><path d="M91.5,66.9c-2.2,0-4-1.8-4-4c0-2.2,1.8-4,4-4c2.2,0,4,1.8,4,4C95.6,65.1,93.8,66.9,91.5,66.9z         M91.5,61.8c-0.6,0-1,0.5-1,1c0,0.6,0.5,1,1,1c0.6,0,1-0.5,1-1C92.6,62.3,92.1,61.8,91.5,61.8z" fill="#62355C"/></g></g><g><g><path d="M100,58.4c-2.2,0-4-1.8-4-4c0-2.2,1.8-4,4-4c2.2,0,4,1.8,4,4C104,56.6,102.2,58.4,100,58.4z M100,53.3        c-0.6,0-1,0.5-1,1c0,0.6,0.5,1,1,1c0.6,0,1-0.5,1-1C101,53.8,100.6,53.3,100,53.3z" fill="#62355C"/></g></g><g><g><path d="M83.1,58.4c-2.2,0-4-1.8-4-4c0-2.2,1.8-4,4-4c2.2,0,4,1.8,4,4C87.1,56.6,85.3,58.4,83.1,58.4z         M83.1,53.3c-0.6,0-1,0.5-1,1c0,0.6,0.5,1,1,1c0.6,0,1-0.5,1-1C84.1,53.8,83.6,53.3,83.1,53.3z" fill="#62355C"/></g></g><g><g><path d="M36.5,70.7c-9,0-16.3-7.3-16.3-16.3S27.5,38,36.5,38c9,0,16.3,7.3,16.3,16.3S45.5,70.7,36.5,70.7z         M36.5,41c-7.3,0-13.3,6-13.3,13.3s6,13.3,13.3,13.3c7.3,0,13.3-6,13.3-13.3S43.8,41,36.5,41z" fill="#62355C"/></g></g></g></g></g><g><g opacity="0.1"><path d="M108.1,43l-1.6-3.8l-0.1-0.3c-1.7-3.1-5.4-3.5-8.4-2.6c-2.5,0.6-4.6,2.3-6,4.8c-1.7,3-2.1,6.6-1,9.5     l2.3,6.5l3.4,11.5c0,0.5-0.7,1.9-1.1,2.6c-0.3,0.6-0.6,1.2-0.8,1.7c-0.5,1.2-1.1,2.8-1.4,4.7c3.2-0.4,6.2-1.5,8.9-3.1     c1.1-2.1,2.5-4.9,1.6-7.8l-3.5-11.7l-2.4-6.7c-0.3-0.9-0.1-2.3,0.5-3.4c0.4-0.8,1-1.2,1.3-1.3l0.3-0.1c0.1,0,0.2,0,0.3-0.1     l1.1,2.6c2.5,5.7,4.4,11.7,5.6,17.8c0.3,1.6,0.9,3.1,1.8,4.4c2.2-3.1,3.8-6.7,4.3-10.7C111.8,52.5,110.1,47.6,108.1,43z" fill="#62345B"/></g><g><g><path d="M116.2,72.1l-4.1-5.5c-0.8-1.1-1.3-2.3-1.6-3.6v0c-1.3-6.4-3.3-12.6-5.9-18.5l-1.6-3.8      c-1-1.9-4.3-0.8-4.3-0.8c-3.5,0.7-5.8,5.9-4.5,9.5l2.3,6.5l3.5,11.7c0.6,2.1-1.3,4.7-2.2,6.7c-1.4,3.1-2.8,9.1,0,19l-0.3,3.1" fill="#F0D6BF"/></g></g><g><g><g><path d="M115.3,72.3c-1.6,0.3-3.3-0.4-4.1-1.9l-1.8-3.3c-0.8-1.1-1.3-2.3-1.6-3.6c-1.3-6.4-2.7-12.3-5.3-18.2       l-2.2-4.6c-0.6-1.1-1.3-0.8-2.6-0.6c0.1,0,0.1,0,0.2-0.1c0,0,3.2-1,4.3,0.8l1.6,3.8c2.6,5.9,4.6,12.1,5.9,18.4       c0.3,1.3,0.8,2.6,1.6,3.7L115.3,72.3L115.3,72.3z" fill="#FFFFFF"/></g></g></g><g opacity="0.7"><g><path d="M97.6,47.1l-0.1-0.3c-1-2.9-3.2-5.5-0.2-6.6c2.8-1,4.7-2.2,5.9,0.5l1.6,3.8c0,0,0,0,0,0      c0.9,2-0.4,4.4-2.5,4.8l-1.5,0.3C99,49.9,98.1,48.8,97.6,47.1z" fill="#FFFFFF"/></g></g><g><g><path d="M97.7,97.9c0,0-0.1,0-0.1,0c-0.8-0.1-1.4-0.8-1.4-1.6l0.3-2.9c-2.7-9.9-1.5-16.2,0.1-19.8      c0.2-0.5,0.5-1,0.8-1.6c0.7-1.4,1.6-3.1,1.3-4.1l-3.5-11.7l-2.3-6.5c-0.8-2.3-0.5-5.2,0.9-7.7c1.1-2,2.8-3.4,4.7-3.8      c1.7-0.5,4.7-0.7,5.9,1.6c0,0,0,0.1,0.1,0.1l1.6,3.8c2.6,6,4.6,12.4,6,18.8c0.2,1.1,0.7,2.1,1.3,3l4.1,5.5      c0.5,0.7,0.3,1.6-0.3,2.1c-0.7,0.5-1.6,0.3-2.1-0.3l-4.1-5.5c-0.9-1.2-1.5-2.7-1.9-4.2c-1.3-6.2-3.2-12.4-5.8-18.2l-1.6-3.7      c-0.3-0.4-1.6-0.3-2.5-0.1c0,0-0.1,0-0.1,0c-1,0.2-2,1.1-2.7,2.3c-0.9,1.7-1.2,3.7-0.7,5.2l2.3,6.5l3.5,11.7      c0.7,2.2-0.6,4.5-1.5,6.4c-0.3,0.5-0.5,1-0.7,1.4c-1.1,2.6-2.6,8.3,0.1,18c0.1,0.2,0.1,0.4,0,0.6l-0.3,3.1      C99.1,97.3,98.4,97.9,97.7,97.9z" fill="#62355C"/></g></g><g><g><path d="M103.3,50.6c-0.7,0-1.3-0.5-1.5-1.2c-0.2-0.8,0.4-1.6,1.2-1.8c0.4-0.1,0.6-0.4,0.7-0.5      c0.1-0.2,0.2-0.5,0-0.9c-0.3-0.8,0-1.6,0.8-2c0.8-0.3,1.6,0,2,0.8c0.5,1.1,0.4,2.4-0.2,3.5c-0.6,1.1-1.6,1.8-2.8,2.1      C103.5,50.5,103.4,50.6,103.3,50.6z" fill="#62355C"/></g></g></g><g><g><g opacity="0.1"><path d="M30.2,35.9c-3.1-0.9-7-0.4-8.8,2.8l-1.8,4.1c-2.7,6.2-4.8,12.7-6.1,19.3c-0.1,0.2-0.1,0.5-0.2,0.7      c1.1,2.8,2.7,5.3,4.7,7.5l1-1.4c1.1-1.5,1.9-3.3,2.3-5.1c1.2-6.1,3.1-12,5.6-17.7l1-2.4l0.4,0.1c0.2,0,0.7,0.4,1.1,1.1      c0.6,1,0.8,2.3,0.5,3.1l-2.3,6.5l-3.5,11.9c-0.9,3.2,0.6,6.1,1.7,8.2c0.2,0.4,0.5,0.9,0.6,1.3c0,0.1,0,0.1,0.1,0.2      c2.6,1,5.5,1.6,8.5,1.6c0.1,0,0.2,0,0.3,0c-0.4-2-0.9-3.7-1.5-5c-0.2-0.5-0.5-1.1-0.8-1.7c-0.4-0.7-1-1.9-1.1-2.5l3.4-11.4      l2.3-6.4c1.1-3,0.7-6.6-1.1-9.7C34.9,38.3,32.7,36.5,30.2,35.9z" fill="#62345B"/></g><g><path d="M11.8,72.1l4.1-5.5c0.8-1.1,1.3-2.3,1.6-3.6l0,0c1.3-6.4,3.3-12.6,5.9-18.5l1.6-3.8      c1-1.9,4.3-0.8,4.3-0.8c3.5,0.7,5.8,5.9,4.5,9.5l-2.3,6.5l-3.5,11.7c-0.6,2.1,1.3,4.7,2.2,6.7c1.4,3.1,2.8,9.1,0,19l0.3,3.1" fill="#F0D6BF"/></g></g><g><g><g><path d="M12.7,72.3c1.6,0.3,3.3-0.4,4.1-1.9l1.8-3.3c0.8-1.1,1.3-2.3,1.6-3.6c1.3-6.4,2.7-12.3,5.3-18.2       l2.2-4.6c0.6-1.1,1.3-0.8,2.6-0.6c-0.1,0-0.1,0-0.2-0.1c0,0-3.2-1-4.3,0.8l-1.6,3.8c-2.6,5.9-4.6,12.1-5.9,18.4       c-0.3,1.3-0.8,2.6-1.6,3.7L12.7,72.3L12.7,72.3z" fill="#FFFFFF"/></g></g></g><g opacity="0.7"><g><path d="M30.4,47.1l0.1-0.3c1-2.9,3.2-5.5,0.2-6.6c-2.8-1-4.7-2.2-5.9,0.5l-1.6,3.8c0,0,0,0,0,0      c-0.9,2,0.4,4.4,2.5,4.8l1.5,0.3C29,49.9,29.9,48.8,30.4,47.1z" fill="#FFFFFF"/></g></g><g><g><path d="M30.3,97.9c-0.8,0-1.4-0.6-1.5-1.4l-0.3-3.1c0-0.2,0-0.4,0-0.5c2.7-9.7,1.2-15.4,0.1-18      c-0.2-0.4-0.4-0.9-0.7-1.4c-1-1.9-2.2-4.2-1.5-6.4l3.5-11.7l2.3-6.6c0.5-1.5,0.3-3.5-0.7-5.2c-0.7-1.3-1.7-2.1-2.7-2.3      c-0.1,0-0.1,0-0.1,0c-0.8-0.2-2.2-0.3-2.5,0.1L24.7,45c-2.6,5.9-4.5,12-5.8,18.2c-0.3,1.5-0.9,2.9-1.9,4.2L13,73      c-0.5,0.7-1.4,0.8-2.1,0.3c-0.7-0.5-0.8-1.4-0.3-2.1l4.1-5.5c0.7-0.9,1.1-1.9,1.3-3c1.3-6.5,3.3-12.8,6-18.8l1.6-3.8      c0,0,0-0.1,0.1-0.1c1.2-2.3,4.3-2.1,5.9-1.6c1.9,0.4,3.5,1.7,4.7,3.8c1.4,2.4,1.7,5.4,0.9,7.7l-2.3,6.5l-3.4,11.6      c-0.3,1,0.6,2.8,1.3,4.1c0.3,0.5,0.6,1.1,0.8,1.6c1.6,3.6,2.9,9.9,0.1,19.8l0.3,2.9c0.1,0.8-0.5,1.6-1.4,1.6      C30.4,97.9,30.4,97.9,30.3,97.9z" fill="#62355C"/></g></g><g><g><path d="M24.7,50.6c-0.1,0-0.2,0-0.3,0c-1.2-0.2-2.2-1-2.8-2.1S21,46.1,21.4,45c0.3-0.8,1.2-1.1,2-0.8      c0.8,0.3,1.1,1.2,0.8,2c-0.2,0.4,0,0.7,0,0.9c0.1,0.2,0.3,0.5,0.7,0.5c0.8,0.2,1.3,1,1.2,1.8C26,50.1,25.4,50.6,24.7,50.6z" fill="#62355C"/></g></g></g></g></svg>