<?xml version="1.0" standalone="no"?>
<!DOCTYPE svg PUBLIC "-//W3C//DTD SVG 20010904//EN"
 "http://www.w3.org/TR/2001/REC-SVG-20010904/DTD/svg10.dtd">
<svg version="1.0" xmlns="http://www.w3.org/2000/svg"
 width="408.000000pt" height="212.000000pt" viewBox="0 0 408.000000 212.000000"
 preserveAspectRatio="xMidYMid meet">

<g transform="translate(0.000000,212.000000) scale(0.100000,-0.100000)"
fill="#000000" stroke="none">
<path d="M1117 2113 c18 -2 50 -2 70 0 21 2 7 4 -32 4 -38 0 -55 -2 -38 -4z"/>
<path d="M1257 2113 c18 -2 50 -2 70 0 21 2 7 4 -32 4 -38 0 -55 -2 -38 -4z"/>
<path d="M1393 2113 c15 -2 37 -2 50 0 12 2 0 4 -28 4 -27 0 -38 -2 -22 -4z"/>
<path d="M1478 2113 c7 -3 16 -2 19 1 4 3 -2 6 -13 5 -11 0 -14 -3 -6 -6z"/>
<path d="M1518 2113 c6 -2 18 -2 25 0 6 3 1 5 -13 5 -14 0 -19 -2 -12 -5z"/>
<path d="M3348 2113 c7 -3 16 -2 19 1 4 3 -2 6 -13 5 -11 0 -14 -3 -6 -6z"/>
<path d="M3548 2113 c7 -3 16 -2 19 1 4 3 -2 6 -13 5 -11 0 -14 -3 -6 -6z"/>
<path d="M3718 2113 c12 -2 32 -2 45 0 12 2 2 4 -23 4 -25 0 -35 -2 -22 -4z"/>
<path d="M1011 2017 c-1 -41 -5 -59 -16 -63 -8 -4 -15 -13 -15 -21 0 -10 -4
-13 -12 -7 -16 11 -39 11 -55 1 -7 -5 -13 -5 -13 -1 0 4 -6 -1 -14 -11 -16
-22 -93 -44 -159 -45 l-48 0 -41 65 c-33 53 -43 63 -54 54 -12 -10 -12 -17 4
-43 10 -17 25 -42 33 -56 8 -14 21 -34 29 -44 12 -15 13 -20 2 -24 -36 -12
-141 -104 -175 -153 -26 -36 -48 -57 -68 -62 -35 -9 -39 -19 -4 -13 14 3 25 3
25 2 0 -2 -6 -22 -14 -44 -8 -22 -17 -65 -21 -97 -5 -37 -10 -52 -16 -44 -6
10 -9 2 -9 -21 0 -26 -3 -31 -10 -20 -8 13 -10 13 -10 -2 0 -13 -7 -15 -37
-11 -21 4 -62 6 -91 6 l-52 0 -1 51 c-1 28 -1 54 0 59 0 4 -4 7 -9 7 -6 0 -10
-23 -9 -55 3 -72 -13 -85 -93 -79 -35 2 -58 0 -58 -6 0 -6 29 -10 66 -10 64 0
66 -1 59 -22 -8 -22 -14 -185 -15 -390 l0 -98 -55 0 c-48 0 -55 -3 -55 -19 0
-18 5 -19 53 -14 l54 5 11 -45 c15 -59 59 -97 112 -97 54 0 108 47 116 101 6
33 10 39 30 39 24 0 24 0 24 -121 l0 -120 -182 2 c-210 2 -218 2 -218 -9 0 -4
90 -8 200 -8 l199 1 31 -30 c28 -27 40 -31 108 -35 l77 -5 5 -158 5 -159 33
-29 c35 -31 85 -39 123 -18 19 10 20 8 17 -28 -3 -35 -6 -38 -38 -43 -19 -3
-101 -6 -183 -5 -81 0 -147 -3 -147 -7 0 -12 378 -13 389 -2 3 3 4 27 4 55 -1
27 5 65 13 84 8 19 14 53 14 75 0 43 12 50 51 30 13 -7 19 -7 19 0 0 5 5 10
11 10 5 0 7 -6 3 -12 -5 -9 -2 -9 9 1 9 7 17 10 17 7 0 -4 8 -2 19 3 17 9 19
5 24 -52 5 -55 10 -66 41 -94 61 -56 142 -39 181 37 11 21 15 68 17 167 1 76
3 118 5 93 6 -81 13 -109 31 -113 14 -4 13 -6 -5 -12 -13 -4 -23 -14 -23 -22
0 -11 4 -11 20 -3 14 8 20 8 20 0 0 -6 5 -8 10 -5 5 3 10 0 10 -7 0 -10 2 -11
8 0 5 7 16 10 24 7 17 -7 33 21 18 30 -6 4 -10 -2 -10 -12 -1 -16 -1 -17 -10
-1 -13 21 -1 56 11 36 6 -9 9 -5 9 14 0 15 4 29 9 32 11 7 11 86 -1 86 -5 0
10 15 34 34 42 31 50 33 154 40 60 4 114 12 121 18 8 6 10 26 6 59 -5 42 -2
53 21 84 15 19 30 51 33 70 5 33 8 35 47 36 38 1 70 3 104 7 20 3 12 217 -8
218 -8 1 -21 2 -27 3 -19 2 -16 21 3 21 27 0 94 23 94 32 0 4 -11 8 -25 8 -14
0 -25 5 -25 11 0 8 -6 7 -17 -2 -15 -13 -15 -12 -4 9 7 13 10 34 7 45 -3 12
-1 39 4 60 7 32 6 36 -6 26 -19 -16 -19 5 1 24 12 13 10 16 -18 21 -18 4 -40
8 -49 9 -33 3 -18 14 28 21 48 6 86 32 66 45 -6 4 -15 46 -18 94 -4 48 -9 86
-11 84 -2 -2 -4 -36 -4 -74 0 -38 -5 -76 -10 -84 -7 -11 -9 -9 -9 9 0 12 -4
22 -10 22 -5 0 -13 12 -16 26 -4 17 -9 22 -14 14 -4 -7 -12 -10 -18 -6 -5 3
-15 -1 -22 -9 -7 -8 -19 -15 -26 -15 -8 0 -14 -10 -14 -22 0 -19 -2 -20 -10
-8 -8 12 -10 11 -10 -7 0 -13 -1 -23 -2 -23 -2 0 -27 9 -55 20 -29 11 -53 18
-53 15 0 -3 -6 0 -14 7 -8 7 -12 15 -11 18 2 3 0 12 -6 20 -7 12 -9 12 -9 -3
0 -10 -5 -15 -10 -12 -7 4 -7 14 0 28 10 22 10 22 -6 0 -21 -29 -38 -30 -23
-2 8 17 8 20 -1 14 -9 -5 -10 -1 -5 16 5 17 4 21 -3 14 -14 -13 -32 -93 -26
-110 3 -7 1 -16 -5 -20 -7 -4 -11 7 -12 29 -2 48 -3 53 -11 62 -13 13 -9 66 4
58 8 -5 9 -2 5 10 -4 10 -7 23 -8 29 0 7 -4 3 -9 -8 -8 -19 -9 -19 -9 3 -1 12
-1 25 -1 29 0 3 26 6 57 5 59 0 113 14 113 29 0 5 -11 9 -24 9 -21 0 -24 4
-23 37 1 20 -4 38 -10 40 -7 3 -10 10 -8 16 6 17 -21 50 -34 42 -7 -3 -8 0 -5
9 4 9 -1 18 -10 22 -9 3 -16 12 -16 19 0 10 -10 12 -37 8 -46 -7 -45 -7 -45
-36 0 -20 -5 -23 -24 -19 -15 3 -24 0 -24 -9 0 -7 -3 -10 -6 -7 -3 4 0 17 7
30 11 21 11 22 -4 9 -10 -7 -17 -20 -17 -28 0 -8 -5 -11 -10 -8 -6 4 -7 11 -4
17 4 6 2 8 -4 4 -6 -3 -13 -2 -16 3 -4 5 -2 12 4 16 18 11 11 35 -10 35 -11 0
-20 5 -20 10 0 10 66 15 143 11 21 -1 44 3 52 9 7 6 17 10 21 9 5 -1 47 0 94
1 l85 3 -90 8 c-57 6 -93 5 -99 -1 -17 -17 -26 -11 -26 20 0 17 -4 30 -10 30
-5 0 -10 -9 -10 -20 0 -15 -6 -19 -29 -17 -16 1 -29 4 -29 7 1 20 -3 30 -11
25 -6 -3 -14 2 -19 11 -6 10 -16 15 -26 11 -11 -4 -16 -1 -17 11 0 10 -3 12
-6 4 -7 -19 -23 -4 -23 23 0 36 -19 41 -45 11 -24 -28 -45 -34 -45 -13 0 9 -3
8 -9 -2 -5 -8 -11 -9 -15 -3 -3 6 -14 9 -24 7 -9 -1 -25 2 -34 7 -13 6 -18 5
-18 -4 0 -10 -2 -10 -9 0 -11 18 -21 -7 -21 -54 0 -66 -18 -33 -30 54 -15 111
-18 120 -19 49z m365 -302 c-9 -9 -16 -13 -16 -8 0 12 22 34 28 28 2 -2 -3
-11 -12 -20z m-724 -82 c-3 -16 -7 -22 -10 -15 -4 13 4 42 11 42 2 0 2 -12 -1
-27z m-72 -258 c0 -11 -11 -15 -43 -15 -32 0 -44 4 -44 15 0 11 12 15 44 15
32 0 43 -4 43 -15z m54 0 c-4 -8 -12 -15 -20 -15 -8 0 -14 7 -14 15 0 8 9 15
20 15 13 0 18 -5 14 -15z m-239 -75 c3 -5 2 -10 -4 -10 -5 0 -17 -7 -25 -16
-9 -8 -16 -11 -16 -6 0 6 -3 17 -6 26 -5 12 0 16 19 16 14 0 29 -4 32 -10z
m1383 -3 c6 3 12 0 12 -5 0 -20 -40 -20 -51 0 -9 17 -8 18 8 10 10 -5 24 -7
31 -5z m-275 -4 c-7 -2 -21 -2 -30 0 -10 3 -4 5 12 5 17 0 24 -2 18 -5z
m-1146 -75 c-3 -8 -6 -5 -6 6 -1 11 2 17 5 13 3 -3 4 -12 1 -19z m33 -188 c0
-5 -6 -10 -14 -10 -8 0 -17 -6 -19 -12 -3 -7 -6 -3 -6 10 -1 16 5 22 19 22 11
0 20 -4 20 -10z m1370 0 c0 -5 -4 -10 -10 -10 -5 0 -10 5 -10 10 0 6 5 10 10
10 6 0 10 -4 10 -10z m119 -120 l1 -90 -70 0 -70 0 1 48 c1 26 4 37 6 24 2
-12 9 -20 14 -17 5 4 10 -4 10 -17 1 -19 2 -20 6 -4 4 15 7 16 14 5 7 -12 9
-12 9 1 0 13 1 13 10 0 9 -13 14 -10 35 15 14 17 24 39 23 50 -2 29 1 75 6 75
2 0 4 -40 5 -90z m-1522 48 c-3 -8 -6 -5 -6 6 -1 11 2 17 5 13 3 -3 4 -12 1
-19z m23 -88 c4 -3 10 -15 14 -27 6 -20 4 -23 -18 -23 -25 0 -26 2 -25 63 1
58 1 60 11 27 5 -19 13 -37 18 -40z m1143 -207 c-6 -16 -5 -16 10 -4 14 11 20
11 32 1 8 -7 34 -11 60 -8 l45 3 0 -46 c0 -58 -3 -59 -125 -59 l-94 0 3 28 c2
15 4 38 5 51 1 18 5 22 21 18 13 -3 20 0 20 8 0 11 6 17 27 24 1 1 -1 -7 -4
-16z m-525 -285 c-3 -82 -3 -83 -30 -86 -16 -2 -28 -1 -28 2 0 10 38 45 43 40
2 -3 4 25 3 61 0 36 3 65 7 65 4 0 7 -37 5 -82z m-126 -47 c8 -24 13 -30 19
-20 6 10 9 10 9 2 0 -7 7 -10 17 -6 11 4 14 3 9 -5 -4 -7 -23 -12 -42 -12
l-34 0 1 58 c1 31 3 48 6 37 2 -11 9 -35 15 -54z"/>
<path d="M3618 2010 c-3 -55 -6 -65 -20 -62 -10 2 -18 -1 -18 -5 0 -11 -73
-10 -81 0 -3 5 -13 2 -21 -7 -11 -11 -18 -12 -27 -3 -8 8 -11 7 -11 -3 0 -13
-2 -13 -10 0 -7 11 -10 11 -10 2 0 -7 -4 -10 -10 -7 -5 3 -10 0 -10 -7 0 -10
-2 -10 -9 1 -8 12 -13 12 -35 -3 -15 -9 -31 -14 -35 -11 -5 3 -16 -2 -24 -10
-18 -17 -31 -20 -22 -5 11 18 -11 10 -30 -10 -28 -31 -46 -26 -44 13 2 17 1
61 0 97 l-4 65 -8 -45 c-4 -25 -8 -66 -8 -92 l-1 -48 -42 -1 c-56 -2 -91 -2
-218 0 -58 1 -108 1 -112 0 -5 -1 -11 -2 -15 -3 -5 -1 -13 -4 -19 -8 -16 -10
-25 2 -16 21 5 9 5 52 2 96 l-7 80 -1 -80 c-1 -44 -6 -86 -11 -94 -7 -10 -48
-14 -181 -17 -95 -2 -175 -6 -178 -9 -3 -3 20 -5 51 -5 31 0 59 -5 62 -10 5
-8 11 -7 21 1 11 9 14 9 14 0 0 -8 6 -9 18 -3 24 13 84 13 99 0 10 -8 13 -7
13 3 0 9 3 10 8 4 8 -13 255 -11 375 2 104 11 119 3 27 -15 -43 -8 -156 -15
-266 -17 -204 -3 -230 -6 -237 -33 -3 -12 -5 -11 -6 6 -1 27 -37 31 -44 5 -4
-16 -5 -16 -6 -1 -1 12 -9 15 -38 13 -21 -2 -39 -8 -41 -14 -2 -5 -9 -8 -16
-5 -8 3 -20 -2 -29 -10 -14 -14 -16 -14 -21 2 -3 9 -4 5 -2 -10 2 -16 0 -28
-3 -28 -3 -1 -67 -11 -141 -24 l-135 -23 0 -39 0 -39 -190 -5 c-104 -3 -185
-7 -180 -9 6 -2 88 -5 184 -6 101 -2 176 -7 180 -13 3 -6 6 -61 6 -124 l0
-113 -78 0 c-42 0 -77 -3 -77 -7 0 -5 34 -8 75 -8 41 0 75 -3 76 -7 0 -5 2
-61 2 -125 1 -64 4 -119 7 -122 3 -3 72 -6 153 -7 81 0 145 -4 143 -8 -3 -4
23 -8 57 -9 64 -2 82 -2 207 2 42 1 78 -3 82 -9 5 -7 15 -5 29 3 18 12 23 12
30 0 6 -9 9 -9 9 -1 0 8 20 12 58 13 88 2 102 4 102 12 0 4 -25 8 -55 8 l-55
0 0 109 0 108 46 7 c26 3 53 6 60 6 11 0 14 -26 14 -122 l0 -123 116 3 c78 2
120 -1 130 -9 7 -6 21 -9 29 -5 8 3 15 2 15 -3 0 -11 81 -10 104 1 11 6 16 6
13 1 -4 -6 49 -8 133 -6 117 3 140 1 140 -11 0 -12 -32 -14 -195 -14 -107 -1
-200 -4 -205 -7 -6 -3 -10 -18 -11 -33 l-1 -27 -11 30 c-14 37 -47 37 -47 1 0
-20 -7 -25 -41 -30 -23 -4 -68 -4 -100 0 -53 6 -58 9 -61 33 -3 26 -5 26 -89
29 l-86 3 -10 -33 -11 -33 -1 34 c-1 30 -3 33 -26 29 -14 -3 -25 -2 -25 1 0 7
-339 4 -357 -4 -7 -2 -13 -16 -13 -30 0 -16 -6 -25 -15 -25 -10 0 -15 10 -15
30 0 17 -4 30 -10 30 -5 0 -10 -13 -10 -30 0 -16 -1 -31 -2 -31 -2 -1 -52 -4
-112 -8 l-109 -6 -1 -65 -1 -65 -60 -6 -60 -6 56 -1 c42 -2 59 -6 63 -18 10
-27 7 -222 -4 -229 -6 -4 -7 -12 -3 -18 4 -7 8 -57 8 -112 l1 -100 100 -14
c54 -7 101 -15 104 -18 2 -2 -2 -9 -10 -14 -12 -8 -10 -9 5 -3 22 9 74 9 145
-1 25 -3 101 -12 170 -21 69 -8 150 -19 180 -23 30 -5 58 -7 63 -4 4 2 7 52 7
111 0 73 3 102 10 92 5 -8 10 -10 10 -4 0 6 12 10 28 9 33 -2 52 16 63 58 4
19 7 -28 7 -120 0 -84 3 -156 6 -161 3 -5 98 -22 210 -37 l205 -28 6 -38 c9
-53 0 -74 -32 -77 -16 -2 -117 -4 -225 -5 -108 -1 -200 -6 -204 -10 -4 -4 24
-7 62 -7 38 0 132 -3 210 -7 77 -3 157 -3 178 1 l36 7 -6 64 c-6 59 -5 65 12
65 11 -1 138 -18 284 -39 146 -21 268 -36 273 -34 4 2 7 47 7 99 l0 94 38 1
c20 1 40 1 44 0 7 -1 11 730 3 750 -4 11 -38 14 -178 12 -94 -1 -184 -3 -199
-3 -25 0 -28 -4 -29 -32 -1 -31 -2 -31 -8 -8 -4 14 -5 35 -3 46 4 22 6 22 213
18 202 -3 209 -3 209 16 0 17 -7 20 -45 20 l-45 0 0 84 c0 76 11 117 23 84 3
-10 8 -10 21 1 20 17 5 32 -26 26 -11 -2 -18 2 -18 11 0 10 12 14 45 14 l45 0
0 118 c0 113 -1 119 -22 130 l-23 11 23 7 c21 6 22 11 22 125 0 71 -4 120 -10
124 -8 5 -7 11 1 21 9 12 8 125 -2 192 -4 20 -19 14 -19 -8 0 -15 -6 -19 -25
-18 -14 1 -25 6 -25 10 0 5 -14 1 -31 -8 -25 -13 -33 -13 -40 -3 -6 10 -11 10
-24 -1 -23 -19 -48 -22 -57 -7 -6 9 -8 9 -8 -1 0 -7 -4 -11 -9 -8 -5 3 -29 -1
-55 -8 -25 -8 -46 -11 -46 -8 0 4 -5 0 -10 -8 -8 -12 -10 -12 -10 5 0 15 -2
17 -9 6 -5 -7 -14 -10 -20 -7 -7 5 -11 -1 -11 -13 0 -22 -20 -30 -21 -8 -1 38
-12 104 -19 117 -6 10 -10 -9 -12 -50z m-1167 -243 c-10 -9 -11 -8 -5 6 3 10
9 15 12 12 3 -3 0 -11 -7 -18z m519 -202 c0 -8 -9 -15 -19 -15 -29 0 -35 18
-9 23 13 2 24 5 26 6 1 0 2 -6 2 -14z m237 -597 c-3 -8 -6 -5 -6 6 -1 11 2 17
5 13 3 -3 4 -12 1 -19z m-237 -208 c0 -5 -9 -10 -19 -10 -11 0 -23 5 -26 10
-4 6 5 10 19 10 14 0 26 -4 26 -10z m-20 -254 c0 -3 -4 -8 -10 -11 -5 -3 -10
-1 -10 4 0 6 5 11 10 11 6 0 10 -2 10 -4z"/>
<path d="M163 2000 c0 -30 2 -43 4 -27 2 15 2 39 0 55 -2 15 -4 2 -4 -28z"/>
<path d="M2311 1963 c-1 -45 -5 -85 -11 -88 -5 -3 -36 -8 -67 -11 -83 -8 -79
-14 9 -14 87 0 89 1 87 88 -2 97 -17 118 -18 25z"/>
<path d="M1870 1948 c-3 -48 -1 -83 3 -79 4 4 7 43 5 87 l-3 79 -5 -87z"/>
<path d="M162 1910 c0 -19 2 -27 5 -17 2 9 2 25 0 35 -3 9 -5 1 -5 -18z"/>
<path d="M560 1860 l-25 -8 28 -1 c15 -1 27 4 27 9 0 6 -1 10 -2 9 -2 -1 -14
-5 -28 -9z"/>
<path d="M1340 1800 c-13 -8 -12 -10 3 -10 9 0 17 5 17 10 0 12 -1 12 -20 0z"/>
<path d="M1381 1784 c0 -11 3 -14 6 -6 3 7 2 16 -1 19 -3 4 -6 -2 -5 -13z"/>
<path d="M1670 1670 c-2 -14 -4 -29 -4 -35 -3 -20 -18 -35 -28 -29 -7 4 -8 2
-4 -4 19 -32 52 21 43 69 l-4 24 -3 -25z"/>
<path d="M152 1515 c0 -16 2 -22 5 -12 2 9 2 23 0 30 -3 6 -5 -1 -5 -18z"/>
<path d="M2870 1257 c0 -16 3 -17 15 -7 8 7 15 16 15 20 0 3 -7 7 -15 7 -8 0
-15 -9 -15 -20z"/>
<path d="M1937 823 c-4 -3 -7 -16 -6 -27 0 -19 1 -19 10 3 10 24 8 36 -4 24z"/>
<path d="M1755 549 c-22 -3 32 -6 120 -6 168 0 175 4 15 9 -52 2 -113 0 -135
-3z"/>
<path d="M1882 405 c0 -49 -3 -100 -7 -113 -6 -18 -4 -21 9 -16 17 6 20 35 16
128 -4 94 -18 95 -18 1z"/>
<path d="M150 382 l0 -102 -77 0 c-47 0 -73 -4 -65 -9 8 -4 46 -8 85 -7 l72 2
-3 104 c-2 58 -5 107 -8 109 -2 2 -4 -41 -4 -97z"/>
<path d="M1447 439 c-10 -58 -7 -163 5 -151 5 5 7 51 6 103 -3 83 -4 88 -11
48z"/>
<path d="M582 345 c0 -16 2 -22 5 -12 2 9 2 23 0 30 -3 6 -5 -1 -5 -18z"/>
<path d="M1410 285 c-8 -9 -8 -15 -2 -15 12 0 26 19 19 26 -2 2 -10 -2 -17
-11z"/>
<path d="M1670 135 c-5 -57 -9 -88 -14 -102 -4 -10 -41 -13 -176 -12 -94 1
-173 -1 -177 -5 -3 -3 78 -6 180 -6 215 0 208 -3 197 95 -4 36 -8 48 -10 30z"/>
<path d="M2530 60 c0 -12 -10 -24 -22 -30 -22 -8 -22 -9 5 -9 24 -1 27 3 27
29 0 17 -2 30 -5 30 -3 0 -5 -9 -5 -20z"/>
<path d="M3895 29 c-49 -3 -88 -6 -85 -8 16 -8 270 -11 270 -3 0 14 -76 18
-185 11z"/>
<path d="M874 18 c-3 -4 43 -8 102 -8 59 0 105 3 101 6 -9 9 -198 11 -203 2z"/>
<path d="M1730 20 c19 -12 250 -13 269 -1 8 5 -45 9 -135 9 -94 1 -143 -3
-134 -8z"/>
<path d="M2050 19 c0 -5 5 -7 10 -4 6 3 10 8 10 11 0 2 -4 4 -10 4 -5 0 -10
-5 -10 -11z"/>
<path d="M2080 20 c0 -12 8 -12 35 0 18 8 17 9 -7 9 -16 1 -28 -3 -28 -9z"/>
<path d="M2148 18 c9 -9 15 -9 24 0 9 9 7 12 -12 12 -19 0 -21 -3 -12 -12z"/>
<path d="M2190 21 c0 -10 245 -9 255 1 4 4 -52 7 -124 7 -74 1 -131 -3 -131
-8z"/>
<path d="M2590 18 c0 -8 37 -10 150 -10 142 1 160 2 160 10 0 4 -70 7 -155 7
-85 0 -155 -3 -155 -7z"/>
<path d="M3448 23 c6 -2 18 -2 25 0 6 3 1 5 -13 5 -14 0 -19 -2 -12 -5z"/>
<path d="M3503 23 c9 -2 25 -2 35 0 9 3 1 5 -18 5 -19 0 -27 -2 -17 -5z"/>
<path d="M3568 23 c7 -3 16 -2 19 1 4 3 -2 6 -13 5 -11 0 -14 -3 -6 -6z"/>
<path d="M3608 23 c7 -3 16 -2 19 1 4 3 -2 6 -13 5 -11 0 -14 -3 -6 -6z"/>
<path d="M3760 26 c0 -9 30 -14 35 -6 4 6 -3 10 -14 10 -12 0 -21 -2 -21 -4z"/>
<path d="M63 13 c9 -2 25 -2 35 0 9 3 1 5 -18 5 -19 0 -27 -2 -17 -5z"/>
<path d="M156 11 c-4 -5 3 -7 14 -4 23 6 26 13 6 13 -8 0 -17 -4 -20 -9z"/>
<path d="M1178 13 c6 -2 18 -2 25 0 6 3 1 5 -13 5 -14 0 -19 -2 -12 -5z"/>
</g>
</svg>
