<?xml version="1.0" ?><svg viewBox="0 0 32 32" xmlns="http://www.w3.org/2000/svg"><defs><style>.a{fill:none;stroke:#000;stroke-linecap:round;stroke-linejoin:round;}</style></defs><path class="a" d="M16,25.47a55.35533,55.35533,0,0,0,9.5884-.59188,3.48807,3.48807,0,0,0,2.3675-1.894S29.02128,20.735,29.02128,16,27.9559,9.01586,27.9559,9.01586a3.83736,3.83736,0,0,0-2.3675-1.894A55.35533,55.35533,0,0,0,16,6.53a55.35533,55.35533,0,0,0-9.5884.59188,3.48809,3.48809,0,0,0-2.3675,1.894S2.97872,11.265,2.97872,16,4.0441,22.98414,4.0441,22.98414a3.83738,3.83738,0,0,0,2.36751,1.894A55.35511,55.35511,0,0,0,16,25.47Z"/><path class="a" d="M12.78306,19.22036V12.77964a.78128.78128,0,0,1,1.18324-.66994l5.36726,3.22036a.78128.78128,0,0,1,0,1.33988L13.9663,19.8903A.78128.78128,0,0,1,12.78306,19.22036Z"/></svg>